<?xml version="1.0" encoding="utf-8" standalone="no"?>
<!DOCTYPE svg PUBLIC "-//W3C//DTD SVG 1.1//EN"
  "http://www.w3.org/Graphics/SVG/1.1/DTD/svg11.dtd">
<svg xmlns:xlink="http://www.w3.org/1999/xlink" width="244.8pt" height="612pt" viewBox="0 0 244.8 612" xmlns="http://www.w3.org/2000/svg" version="1.1">
 <metadata>
  <rdf:RDF xmlns:dc="http://purl.org/dc/elements/1.1/" xmlns:cc="http://creativecommons.org/ns#" xmlns:rdf="http://www.w3.org/1999/02/22-rdf-syntax-ns#">
   <cc:Work>
    <dc:type rdf:resource="http://purl.org/dc/dcmitype/StillImage"/>
    <dc:date>2026-07-09T22:36:47.500335</dc:date>
    <dc:format>image/svg+xml</dc:format>
    <dc:creator>
     <cc:Agent>
      <dc:title>Matplotlib v3.9.2, https://matplotlib.org/</dc:title>
     </cc:Agent>
    </dc:creator>
   </cc:Work>
  </rdf:RDF>
 </metadata>
 <defs>
  <style type="text/css">*{stroke-linejoin: round; stroke-linecap: butt}</style>
 </defs>
 <g id="figure_1">
  <g id="patch_1">
   <path d="M 0 612
L 244.8 612
L 244.8 0
L 0 0
L 0 612
z
" style="fill: none"/>
  </g>
  <g id="axes_1">
   <g id="patch_2">
    <path d="M 0 5.719626
L 244.8 5.719626
L 244.8 463.28972
L 0 463.28972
z
" clip-path="url(#pcbbfc0d26a)" style="fill: url(#h585d1f9bd8)"/>
   </g>
   <g id="patch_3">
    <path d="M 62.948571 463.28972
L 181.851429 463.28972
L 181.851429 606.280374
L 62.948571 606.280374
z
" clip-path="url(#pcbbfc0d26a)" style="fill: url(#h1846414e8f)"/>
   </g>
   <g id="patch_4">
    <path d="M 28.851429 5.719626
L 36.195429 5.719626
L 36.195429 177.308411
L 28.851429 177.308411
z
" clip-path="url(#pcbbfc0d26a)" style="fill: #334155"/>
   </g>
   <g id="patch_5">
    <path d="M 208.604571 5.719626
L 215.948571 5.719626
L 215.948571 177.308411
L 208.604571 177.308411
z
" clip-path="url(#pcbbfc0d26a)" style="fill: #334155"/>
   </g>
   <g id="patch_6">
    <path d="M 11.032653 177.308411
L 11.032653 176.593458
L 2.289796 177.308411
z
" clip-path="url(#pcbbfc0d26a)" style="stroke: #000000; stroke-linejoin: miter"/>
   </g>
   <g id="patch_7">
    <path d="M 233.767347 177.308411
L 233.767347 176.593458
L 242.510204 177.308411
z
" clip-path="url(#pcbbfc0d26a)" style="stroke: #000000; stroke-linejoin: miter"/>
   </g>
   <g id="patch_8">
    <path d="M 0 5.719626
L 28.851429 5.719626
L 28.851429 177.308411
L 0 177.308411
z
" clip-path="url(#pcbbfc0d26a)" style="fill: url(#h052514ad8d)"/>
   </g>
   <g id="patch_9">
    <path d="M 215.948571 5.719626
L 244.8 5.719626
L 244.8 177.308411
L 215.948571 177.308411
z
" clip-path="url(#pcbbfc0d26a)" style="fill: url(#h052514ad8d)"/>
   </g>
   <g id="patch_10">
    <path d="M 55.08 5.719626
L 62.424 5.719626
L 62.424 463.28972
L 55.08 463.28972
z
" clip-path="url(#pcbbfc0d26a)" style="fill: #1f2937"/>
   </g>
   <g id="patch_11">
    <path d="M 182.376 5.719626
L 189.72 5.719626
L 189.72 463.28972
L 182.376 463.28972
z
" clip-path="url(#pcbbfc0d26a)" style="fill: #1f2937"/>
   </g>
   <g id="patch_12">
    <path d="M 42.257143 463.28972
L 42.257143 462.574766
L 33.514286 463.28972
z
" clip-path="url(#pcbbfc0d26a)" style="stroke: #000000; stroke-linejoin: miter"/>
   </g>
   <g id="patch_13">
    <path d="M 202.542857 463.28972
L 202.542857 462.574766
L 211.285714 463.28972
z
" clip-path="url(#pcbbfc0d26a)" style="stroke: #000000; stroke-linejoin: miter"/>
   </g>
   <g id="patch_14">
    <path d="M 36.72 5.719626
L 55.08 5.719626
L 55.08 463.28972
L 36.72 463.28972
z
" clip-path="url(#pcbbfc0d26a)" style="fill: url(#h052514ad8d)"/>
   </g>
   <g id="patch_15">
    <path d="M 189.72 5.719626
L 208.08 5.719626
L 208.08 463.28972
L 189.72 463.28972
z
" clip-path="url(#pcbbfc0d26a)" style="fill: url(#h052514ad8d)"/>
   </g>
   <g id="patch_16">
    <path d="M 45.962449 571.104673
L 42.257143 571.676636
L 42.257143 570.53271
z
" clip-path="url(#pcbbfc0d26a)" style="fill: url(#he9b7174c5b); stroke: #ef4444; stroke-linejoin: miter"/>
   </g>
   <g id="patch_17">
    <path d="M 198.837551 571.104673
L 202.542857 571.676636
L 202.542857 570.53271
z
" clip-path="url(#pcbbfc0d26a)" style="fill: url(#he9b7174c5b); stroke: #ef4444; stroke-linejoin: miter"/>
   </g>
   <g id="patch_18">
    <path d="M 45.962449 572.248598
L 42.257143 572.820561
L 42.257143 571.676636
z
" clip-path="url(#pcbbfc0d26a)" style="fill: url(#he9b7174c5b); stroke: #ef4444; stroke-linejoin: miter"/>
   </g>
   <g id="patch_19">
    <path d="M 198.837551 572.248598
L 202.542857 572.820561
L 202.542857 571.676636
z
" clip-path="url(#pcbbfc0d26a)" style="fill: url(#he9b7174c5b); stroke: #ef4444; stroke-linejoin: miter"/>
   </g>
   <g id="patch_20">
    <path d="M 45.962449 573.392523
L 42.257143 573.964486
L 42.257143 572.820561
z
" clip-path="url(#pcbbfc0d26a)" style="fill: url(#he9b7174c5b); stroke: #ef4444; stroke-linejoin: miter"/>
   </g>
   <g id="patch_21">
    <path d="M 198.837551 573.392523
L 202.542857 573.964486
L 202.542857 572.820561
z
" clip-path="url(#pcbbfc0d26a)" style="fill: url(#he9b7174c5b); stroke: #ef4444; stroke-linejoin: miter"/>
   </g>
   <g id="patch_22">
    <path d="M 45.962449 574.536449
L 42.257143 575.108411
L 42.257143 573.964486
z
" clip-path="url(#pcbbfc0d26a)" style="fill: url(#he9b7174c5b); stroke: #ef4444; stroke-linejoin: miter"/>
   </g>
   <g id="patch_23">
    <path d="M 198.837551 574.536449
L 202.542857 575.108411
L 202.542857 573.964486
z
" clip-path="url(#pcbbfc0d26a)" style="fill: url(#he9b7174c5b); stroke: #ef4444; stroke-linejoin: miter"/>
   </g>
   <g id="patch_24">
    <path d="M 45.962449 575.680374
L 42.257143 576.252336
L 42.257143 575.108411
z
" clip-path="url(#pcbbfc0d26a)" style="fill: url(#he9b7174c5b); stroke: #ef4444; stroke-linejoin: miter"/>
   </g>
   <g id="patch_25">
    <path d="M 198.837551 575.680374
L 202.542857 576.252336
L 202.542857 575.108411
z
" clip-path="url(#pcbbfc0d26a)" style="fill: url(#he9b7174c5b); stroke: #ef4444; stroke-linejoin: miter"/>
   </g>
   <g id="patch_26">
    <path d="M 45.962449 576.824299
L 42.257143 577.396262
L 42.257143 576.252336
z
" clip-path="url(#pcbbfc0d26a)" style="fill: url(#he9b7174c5b); stroke: #ef4444; stroke-linejoin: miter"/>
   </g>
   <g id="patch_27">
    <path d="M 198.837551 576.824299
L 202.542857 577.396262
L 202.542857 576.252336
z
" clip-path="url(#pcbbfc0d26a)" style="fill: url(#he9b7174c5b); stroke: #ef4444; stroke-linejoin: miter"/>
   </g>
   <g id="patch_28">
    <path d="M 45.962449 577.968224
L 42.257143 578.540187
L 42.257143 577.396262
z
" clip-path="url(#pcbbfc0d26a)" style="fill: url(#he9b7174c5b); stroke: #ef4444; stroke-linejoin: miter"/>
   </g>
   <g id="patch_29">
    <path d="M 198.837551 577.968224
L 202.542857 578.540187
L 202.542857 577.396262
z
" clip-path="url(#pcbbfc0d26a)" style="fill: url(#he9b7174c5b); stroke: #ef4444; stroke-linejoin: miter"/>
   </g>
   <g id="patch_30">
    <path d="M 45.962449 579.11215
L 42.257143 579.684112
L 42.257143 578.540187
z
" clip-path="url(#pcbbfc0d26a)" style="fill: url(#he9b7174c5b); stroke: #ef4444; stroke-linejoin: miter"/>
   </g>
   <g id="patch_31">
    <path d="M 198.837551 579.11215
L 202.542857 579.684112
L 202.542857 578.540187
z
" clip-path="url(#pcbbfc0d26a)" style="fill: url(#he9b7174c5b); stroke: #ef4444; stroke-linejoin: miter"/>
   </g>
   <g id="patch_32">
    <path d="M 45.962449 580.256075
L 42.257143 580.828037
L 42.257143 579.684112
z
" clip-path="url(#pcbbfc0d26a)" style="fill: url(#he9b7174c5b); stroke: #ef4444; stroke-linejoin: miter"/>
   </g>
   <g id="patch_33">
    <path d="M 198.837551 580.256075
L 202.542857 580.828037
L 202.542857 579.684112
z
" clip-path="url(#pcbbfc0d26a)" style="fill: url(#he9b7174c5b); stroke: #ef4444; stroke-linejoin: miter"/>
   </g>
   <g id="patch_34">
    <path d="M 97.92 5.719626
L 102.816 5.719626
L 102.816 557.663551
L 97.92 557.663551
z
" clip-path="url(#pcbbfc0d26a)" style="fill: #2563eb"/>
   </g>
   <g id="patch_35">
    <path d="M 141.984 5.719626
L 146.88 5.719626
L 146.88 557.663551
L 141.984 557.663551
z
" clip-path="url(#pcbbfc0d26a)" style="fill: #2563eb"/>
   </g>
   <g id="patch_36">
    <path d="M 87.428571 520.485981
L 95.996571 520.485981
L 95.996571 557.663551
L 87.428571 557.663551
z
" clip-path="url(#pcbbfc0d26a)" style="fill: #60a5fa"/>
   </g>
   <g id="patch_37">
    <path d="M 148.803429 520.485981
L 157.371429 520.485981
L 157.371429 557.663551
L 148.803429 557.663551
z
" clip-path="url(#pcbbfc0d26a)" style="fill: #60a5fa"/>
   </g>
  </g>
 </g>
 <defs>
  <clipPath id="pcbbfc0d26a">
   <rect x="0" y="0" width="244.8" height="612"/>
  </clipPath>
 </defs>
 <defs>
  <pattern id="h585d1f9bd8" patternUnits="userSpaceOnUse" x="0" y="0" width="72" height="72">
   <rect x="0" y="0" width="73" height="73" fill="#eef2f7"/>
   <path d="M 0 73.2
C 0.318244 73.2 0.623496 73.07356 0.848528 72.848528
C 1.07356 72.623496 1.2 72.318244 1.2 72
C 1.2 71.681756 1.07356 71.376504 0.848528 71.151472
C 0.623496 70.92644 0.318244 70.8 0 70.8
C -0.318244 70.8 -0.623496 70.92644 -0.848528 71.151472
C -1.07356 71.376504 -1.2 71.681756 -1.2 72
C -1.2 72.318244 -1.07356 72.623496 -0.848528 72.848528
C -0.623496 73.07356 -0.318244 73.2 0 73.2
z
M 12 73.2
C 12.318244 73.2 12.623496 73.07356 12.848528 72.848528
C 13.07356 72.623496 13.2 72.318244 13.2 72
C 13.2 71.681756 13.07356 71.376504 12.848528 71.151472
C 12.623496 70.92644 12.318244 70.8 12 70.8
C 11.681756 70.8 11.376504 70.92644 11.151472 71.151472
C 10.92644 71.376504 10.8 71.681756 10.8 72
C 10.8 72.318244 10.92644 72.623496 11.151472 72.848528
C 11.376504 73.07356 11.681756 73.2 12 73.2
z
M 24 73.2
C 24.318244 73.2 24.623496 73.07356 24.848528 72.848528
C 25.07356 72.623496 25.2 72.318244 25.2 72
C 25.2 71.681756 25.07356 71.376504 24.848528 71.151472
C 24.623496 70.92644 24.318244 70.8 24 70.8
C 23.681756 70.8 23.376504 70.92644 23.151472 71.151472
C 22.92644 71.376504 22.8 71.681756 22.8 72
C 22.8 72.318244 22.92644 72.623496 23.151472 72.848528
C 23.376504 73.07356 23.681756 73.2 24 73.2
z
M 36 73.2
C 36.318244 73.2 36.623496 73.07356 36.848528 72.848528
C 37.07356 72.623496 37.2 72.318244 37.2 72
C 37.2 71.681756 37.07356 71.376504 36.848528 71.151472
C 36.623496 70.92644 36.318244 70.8 36 70.8
C 35.681756 70.8 35.376504 70.92644 35.151472 71.151472
C 34.92644 71.376504 34.8 71.681756 34.8 72
C 34.8 72.318244 34.92644 72.623496 35.151472 72.848528
C 35.376504 73.07356 35.681756 73.2 36 73.2
z
M 48 73.2
C 48.318244 73.2 48.623496 73.07356 48.848528 72.848528
C 49.07356 72.623496 49.2 72.318244 49.2 72
C 49.2 71.681756 49.07356 71.376504 48.848528 71.151472
C 48.623496 70.92644 48.318244 70.8 48 70.8
C 47.681756 70.8 47.376504 70.92644 47.151472 71.151472
C 46.92644 71.376504 46.8 71.681756 46.8 72
C 46.8 72.318244 46.92644 72.623496 47.151472 72.848528
C 47.376504 73.07356 47.681756 73.2 48 73.2
z
M 60 73.2
C 60.318244 73.2 60.623496 73.07356 60.848528 72.848528
C 61.07356 72.623496 61.2 72.318244 61.2 72
C 61.2 71.681756 61.07356 71.376504 60.848528 71.151472
C 60.623496 70.92644 60.318244 70.8 60 70.8
C 59.681756 70.8 59.376504 70.92644 59.151472 71.151472
C 58.92644 71.376504 58.8 71.681756 58.8 72
C 58.8 72.318244 58.92644 72.623496 59.151472 72.848528
C 59.376504 73.07356 59.681756 73.2 60 73.2
z
M 72 73.2
C 72.318244 73.2 72.623496 73.07356 72.848528 72.848528
C 73.07356 72.623496 73.2 72.318244 73.2 72
C 73.2 71.681756 73.07356 71.376504 72.848528 71.151472
C 72.623496 70.92644 72.318244 70.8 72 70.8
C 71.681756 70.8 71.376504 70.92644 71.151472 71.151472
C 70.92644 71.376504 70.8 71.681756 70.8 72
C 70.8 72.318244 70.92644 72.623496 71.151472 72.848528
C 71.376504 73.07356 71.681756 73.2 72 73.2
z
M 6 61.2
C 6.318244 61.2 6.623496 61.07356 6.848528 60.848528
C 7.07356 60.623496 7.2 60.318244 7.2 60
C 7.2 59.681756 7.07356 59.376504 6.848528 59.151472
C 6.623496 58.92644 6.318244 58.8 6 58.8
C 5.681756 58.8 5.376504 58.92644 5.151472 59.151472
C 4.92644 59.376504 4.8 59.681756 4.8 60
C 4.8 60.318244 4.92644 60.623496 5.151472 60.848528
C 5.376504 61.07356 5.681756 61.2 6 61.2
z
M 18 61.2
C 18.318244 61.2 18.623496 61.07356 18.848528 60.848528
C 19.07356 60.623496 19.2 60.318244 19.2 60
C 19.2 59.681756 19.07356 59.376504 18.848528 59.151472
C 18.623496 58.92644 18.318244 58.8 18 58.8
C 17.681756 58.8 17.376504 58.92644 17.151472 59.151472
C 16.92644 59.376504 16.8 59.681756 16.8 60
C 16.8 60.318244 16.92644 60.623496 17.151472 60.848528
C 17.376504 61.07356 17.681756 61.2 18 61.2
z
M 30 61.2
C 30.318244 61.2 30.623496 61.07356 30.848528 60.848528
C 31.07356 60.623496 31.2 60.318244 31.2 60
C 31.2 59.681756 31.07356 59.376504 30.848528 59.151472
C 30.623496 58.92644 30.318244 58.8 30 58.8
C 29.681756 58.8 29.376504 58.92644 29.151472 59.151472
C 28.92644 59.376504 28.8 59.681756 28.8 60
C 28.8 60.318244 28.92644 60.623496 29.151472 60.848528
C 29.376504 61.07356 29.681756 61.2 30 61.2
z
M 42 61.2
C 42.318244 61.2 42.623496 61.07356 42.848528 60.848528
C 43.07356 60.623496 43.2 60.318244 43.2 60
C 43.2 59.681756 43.07356 59.376504 42.848528 59.151472
C 42.623496 58.92644 42.318244 58.8 42 58.8
C 41.681756 58.8 41.376504 58.92644 41.151472 59.151472
C 40.92644 59.376504 40.8 59.681756 40.8 60
C 40.8 60.318244 40.92644 60.623496 41.151472 60.848528
C 41.376504 61.07356 41.681756 61.2 42 61.2
z
M 54 61.2
C 54.318244 61.2 54.623496 61.07356 54.848528 60.848528
C 55.07356 60.623496 55.2 60.318244 55.2 60
C 55.2 59.681756 55.07356 59.376504 54.848528 59.151472
C 54.623496 58.92644 54.318244 58.8 54 58.8
C 53.681756 58.8 53.376504 58.92644 53.151472 59.151472
C 52.92644 59.376504 52.8 59.681756 52.8 60
C 52.8 60.318244 52.92644 60.623496 53.151472 60.848528
C 53.376504 61.07356 53.681756 61.2 54 61.2
z
M 66 61.2
C 66.318244 61.2 66.623496 61.07356 66.848528 60.848528
C 67.07356 60.623496 67.2 60.318244 67.2 60
C 67.2 59.681756 67.07356 59.376504 66.848528 59.151472
C 66.623496 58.92644 66.318244 58.8 66 58.8
C 65.681756 58.8 65.376504 58.92644 65.151472 59.151472
C 64.92644 59.376504 64.8 59.681756 64.8 60
C 64.8 60.318244 64.92644 60.623496 65.151472 60.848528
C 65.376504 61.07356 65.681756 61.2 66 61.2
z
M 0 49.2
C 0.318244 49.2 0.623496 49.07356 0.848528 48.848528
C 1.07356 48.623496 1.2 48.318244 1.2 48
C 1.2 47.681756 1.07356 47.376504 0.848528 47.151472
C 0.623496 46.92644 0.318244 46.8 0 46.8
C -0.318244 46.8 -0.623496 46.92644 -0.848528 47.151472
C -1.07356 47.376504 -1.2 47.681756 -1.2 48
C -1.2 48.318244 -1.07356 48.623496 -0.848528 48.848528
C -0.623496 49.07356 -0.318244 49.2 0 49.2
z
M 12 49.2
C 12.318244 49.2 12.623496 49.07356 12.848528 48.848528
C 13.07356 48.623496 13.2 48.318244 13.2 48
C 13.2 47.681756 13.07356 47.376504 12.848528 47.151472
C 12.623496 46.92644 12.318244 46.8 12 46.8
C 11.681756 46.8 11.376504 46.92644 11.151472 47.151472
C 10.92644 47.376504 10.8 47.681756 10.8 48
C 10.8 48.318244 10.92644 48.623496 11.151472 48.848528
C 11.376504 49.07356 11.681756 49.2 12 49.2
z
M 24 49.2
C 24.318244 49.2 24.623496 49.07356 24.848528 48.848528
C 25.07356 48.623496 25.2 48.318244 25.2 48
C 25.2 47.681756 25.07356 47.376504 24.848528 47.151472
C 24.623496 46.92644 24.318244 46.8 24 46.8
C 23.681756 46.8 23.376504 46.92644 23.151472 47.151472
C 22.92644 47.376504 22.8 47.681756 22.8 48
C 22.8 48.318244 22.92644 48.623496 23.151472 48.848528
C 23.376504 49.07356 23.681756 49.2 24 49.2
z
M 36 49.2
C 36.318244 49.2 36.623496 49.07356 36.848528 48.848528
C 37.07356 48.623496 37.2 48.318244 37.2 48
C 37.2 47.681756 37.07356 47.376504 36.848528 47.151472
C 36.623496 46.92644 36.318244 46.8 36 46.8
C 35.681756 46.8 35.376504 46.92644 35.151472 47.151472
C 34.92644 47.376504 34.8 47.681756 34.8 48
C 34.8 48.318244 34.92644 48.623496 35.151472 48.848528
C 35.376504 49.07356 35.681756 49.2 36 49.2
z
M 48 49.2
C 48.318244 49.2 48.623496 49.07356 48.848528 48.848528
C 49.07356 48.623496 49.2 48.318244 49.2 48
C 49.2 47.681756 49.07356 47.376504 48.848528 47.151472
C 48.623496 46.92644 48.318244 46.8 48 46.8
C 47.681756 46.8 47.376504 46.92644 47.151472 47.151472
C 46.92644 47.376504 46.8 47.681756 46.8 48
C 46.8 48.318244 46.92644 48.623496 47.151472 48.848528
C 47.376504 49.07356 47.681756 49.2 48 49.2
z
M 60 49.2
C 60.318244 49.2 60.623496 49.07356 60.848528 48.848528
C 61.07356 48.623496 61.2 48.318244 61.2 48
C 61.2 47.681756 61.07356 47.376504 60.848528 47.151472
C 60.623496 46.92644 60.318244 46.8 60 46.8
C 59.681756 46.8 59.376504 46.92644 59.151472 47.151472
C 58.92644 47.376504 58.8 47.681756 58.8 48
C 58.8 48.318244 58.92644 48.623496 59.151472 48.848528
C 59.376504 49.07356 59.681756 49.2 60 49.2
z
M 72 49.2
C 72.318244 49.2 72.623496 49.07356 72.848528 48.848528
C 73.07356 48.623496 73.2 48.318244 73.2 48
C 73.2 47.681756 73.07356 47.376504 72.848528 47.151472
C 72.623496 46.92644 72.318244 46.8 72 46.8
C 71.681756 46.8 71.376504 46.92644 71.151472 47.151472
C 70.92644 47.376504 70.8 47.681756 70.8 48
C 70.8 48.318244 70.92644 48.623496 71.151472 48.848528
C 71.376504 49.07356 71.681756 49.2 72 49.2
z
M 6 37.2
C 6.318244 37.2 6.623496 37.07356 6.848528 36.848528
C 7.07356 36.623496 7.2 36.318244 7.2 36
C 7.2 35.681756 7.07356 35.376504 6.848528 35.151472
C 6.623496 34.92644 6.318244 34.8 6 34.8
C 5.681756 34.8 5.376504 34.92644 5.151472 35.151472
C 4.92644 35.376504 4.8 35.681756 4.8 36
C 4.8 36.318244 4.92644 36.623496 5.151472 36.848528
C 5.376504 37.07356 5.681756 37.2 6 37.2
z
M 18 37.2
C 18.318244 37.2 18.623496 37.07356 18.848528 36.848528
C 19.07356 36.623496 19.2 36.318244 19.2 36
C 19.2 35.681756 19.07356 35.376504 18.848528 35.151472
C 18.623496 34.92644 18.318244 34.8 18 34.8
C 17.681756 34.8 17.376504 34.92644 17.151472 35.151472
C 16.92644 35.376504 16.8 35.681756 16.8 36
C 16.8 36.318244 16.92644 36.623496 17.151472 36.848528
C 17.376504 37.07356 17.681756 37.2 18 37.2
z
M 30 37.2
C 30.318244 37.2 30.623496 37.07356 30.848528 36.848528
C 31.07356 36.623496 31.2 36.318244 31.2 36
C 31.2 35.681756 31.07356 35.376504 30.848528 35.151472
C 30.623496 34.92644 30.318244 34.8 30 34.8
C 29.681756 34.8 29.376504 34.92644 29.151472 35.151472
C 28.92644 35.376504 28.8 35.681756 28.8 36
C 28.8 36.318244 28.92644 36.623496 29.151472 36.848528
C 29.376504 37.07356 29.681756 37.2 30 37.2
z
M 42 37.2
C 42.318244 37.2 42.623496 37.07356 42.848528 36.848528
C 43.07356 36.623496 43.2 36.318244 43.2 36
C 43.2 35.681756 43.07356 35.376504 42.848528 35.151472
C 42.623496 34.92644 42.318244 34.8 42 34.8
C 41.681756 34.8 41.376504 34.92644 41.151472 35.151472
C 40.92644 35.376504 40.8 35.681756 40.8 36
C 40.8 36.318244 40.92644 36.623496 41.151472 36.848528
C 41.376504 37.07356 41.681756 37.2 42 37.2
z
M 54 37.2
C 54.318244 37.2 54.623496 37.07356 54.848528 36.848528
C 55.07356 36.623496 55.2 36.318244 55.2 36
C 55.2 35.681756 55.07356 35.376504 54.848528 35.151472
C 54.623496 34.92644 54.318244 34.8 54 34.8
C 53.681756 34.8 53.376504 34.92644 53.151472 35.151472
C 52.92644 35.376504 52.8 35.681756 52.8 36
C 52.8 36.318244 52.92644 36.623496 53.151472 36.848528
C 53.376504 37.07356 53.681756 37.2 54 37.2
z
M 66 37.2
C 66.318244 37.2 66.623496 37.07356 66.848528 36.848528
C 67.07356 36.623496 67.2 36.318244 67.2 36
C 67.2 35.681756 67.07356 35.376504 66.848528 35.151472
C 66.623496 34.92644 66.318244 34.8 66 34.8
C 65.681756 34.8 65.376504 34.92644 65.151472 35.151472
C 64.92644 35.376504 64.8 35.681756 64.8 36
C 64.8 36.318244 64.92644 36.623496 65.151472 36.848528
C 65.376504 37.07356 65.681756 37.2 66 37.2
z
M 0 25.2
C 0.318244 25.2 0.623496 25.07356 0.848528 24.848528
C 1.07356 24.623496 1.2 24.318244 1.2 24
C 1.2 23.681756 1.07356 23.376504 0.848528 23.151472
C 0.623496 22.92644 0.318244 22.8 0 22.8
C -0.318244 22.8 -0.623496 22.92644 -0.848528 23.151472
C -1.07356 23.376504 -1.2 23.681756 -1.2 24
C -1.2 24.318244 -1.07356 24.623496 -0.848528 24.848528
C -0.623496 25.07356 -0.318244 25.2 0 25.2
z
M 12 25.2
C 12.318244 25.2 12.623496 25.07356 12.848528 24.848528
C 13.07356 24.623496 13.2 24.318244 13.2 24
C 13.2 23.681756 13.07356 23.376504 12.848528 23.151472
C 12.623496 22.92644 12.318244 22.8 12 22.8
C 11.681756 22.8 11.376504 22.92644 11.151472 23.151472
C 10.92644 23.376504 10.8 23.681756 10.8 24
C 10.8 24.318244 10.92644 24.623496 11.151472 24.848528
C 11.376504 25.07356 11.681756 25.2 12 25.2
z
M 24 25.2
C 24.318244 25.2 24.623496 25.07356 24.848528 24.848528
C 25.07356 24.623496 25.2 24.318244 25.2 24
C 25.2 23.681756 25.07356 23.376504 24.848528 23.151472
C 24.623496 22.92644 24.318244 22.8 24 22.8
C 23.681756 22.8 23.376504 22.92644 23.151472 23.151472
C 22.92644 23.376504 22.8 23.681756 22.8 24
C 22.8 24.318244 22.92644 24.623496 23.151472 24.848528
C 23.376504 25.07356 23.681756 25.2 24 25.2
z
M 36 25.2
C 36.318244 25.2 36.623496 25.07356 36.848528 24.848528
C 37.07356 24.623496 37.2 24.318244 37.2 24
C 37.2 23.681756 37.07356 23.376504 36.848528 23.151472
C 36.623496 22.92644 36.318244 22.8 36 22.8
C 35.681756 22.8 35.376504 22.92644 35.151472 23.151472
C 34.92644 23.376504 34.8 23.681756 34.8 24
C 34.8 24.318244 34.92644 24.623496 35.151472 24.848528
C 35.376504 25.07356 35.681756 25.2 36 25.2
z
M 48 25.2
C 48.318244 25.2 48.623496 25.07356 48.848528 24.848528
C 49.07356 24.623496 49.2 24.318244 49.2 24
C 49.2 23.681756 49.07356 23.376504 48.848528 23.151472
C 48.623496 22.92644 48.318244 22.8 48 22.8
C 47.681756 22.8 47.376504 22.92644 47.151472 23.151472
C 46.92644 23.376504 46.8 23.681756 46.8 24
C 46.8 24.318244 46.92644 24.623496 47.151472 24.848528
C 47.376504 25.07356 47.681756 25.2 48 25.2
z
M 60 25.2
C 60.318244 25.2 60.623496 25.07356 60.848528 24.848528
C 61.07356 24.623496 61.2 24.318244 61.2 24
C 61.2 23.681756 61.07356 23.376504 60.848528 23.151472
C 60.623496 22.92644 60.318244 22.8 60 22.8
C 59.681756 22.8 59.376504 22.92644 59.151472 23.151472
C 58.92644 23.376504 58.8 23.681756 58.8 24
C 58.8 24.318244 58.92644 24.623496 59.151472 24.848528
C 59.376504 25.07356 59.681756 25.2 60 25.2
z
M 72 25.2
C 72.318244 25.2 72.623496 25.07356 72.848528 24.848528
C 73.07356 24.623496 73.2 24.318244 73.2 24
C 73.2 23.681756 73.07356 23.376504 72.848528 23.151472
C 72.623496 22.92644 72.318244 22.8 72 22.8
C 71.681756 22.8 71.376504 22.92644 71.151472 23.151472
C 70.92644 23.376504 70.8 23.681756 70.8 24
C 70.8 24.318244 70.92644 24.623496 71.151472 24.848528
C 71.376504 25.07356 71.681756 25.2 72 25.2
z
M 6 13.2
C 6.318244 13.2 6.623496 13.07356 6.848528 12.848528
C 7.07356 12.623496 7.2 12.318244 7.2 12
C 7.2 11.681756 7.07356 11.376504 6.848528 11.151472
C 6.623496 10.92644 6.318244 10.8 6 10.8
C 5.681756 10.8 5.376504 10.92644 5.151472 11.151472
C 4.92644 11.376504 4.8 11.681756 4.8 12
C 4.8 12.318244 4.92644 12.623496 5.151472 12.848528
C 5.376504 13.07356 5.681756 13.2 6 13.2
z
M 18 13.2
C 18.318244 13.2 18.623496 13.07356 18.848528 12.848528
C 19.07356 12.623496 19.2 12.318244 19.2 12
C 19.2 11.681756 19.07356 11.376504 18.848528 11.151472
C 18.623496 10.92644 18.318244 10.8 18 10.8
C 17.681756 10.8 17.376504 10.92644 17.151472 11.151472
C 16.92644 11.376504 16.8 11.681756 16.8 12
C 16.8 12.318244 16.92644 12.623496 17.151472 12.848528
C 17.376504 13.07356 17.681756 13.2 18 13.2
z
M 30 13.2
C 30.318244 13.2 30.623496 13.07356 30.848528 12.848528
C 31.07356 12.623496 31.2 12.318244 31.2 12
C 31.2 11.681756 31.07356 11.376504 30.848528 11.151472
C 30.623496 10.92644 30.318244 10.8 30 10.8
C 29.681756 10.8 29.376504 10.92644 29.151472 11.151472
C 28.92644 11.376504 28.8 11.681756 28.8 12
C 28.8 12.318244 28.92644 12.623496 29.151472 12.848528
C 29.376504 13.07356 29.681756 13.2 30 13.2
z
M 42 13.2
C 42.318244 13.2 42.623496 13.07356 42.848528 12.848528
C 43.07356 12.623496 43.2 12.318244 43.2 12
C 43.2 11.681756 43.07356 11.376504 42.848528 11.151472
C 42.623496 10.92644 42.318244 10.8 42 10.8
C 41.681756 10.8 41.376504 10.92644 41.151472 11.151472
C 40.92644 11.376504 40.8 11.681756 40.8 12
C 40.8 12.318244 40.92644 12.623496 41.151472 12.848528
C 41.376504 13.07356 41.681756 13.2 42 13.2
z
M 54 13.2
C 54.318244 13.2 54.623496 13.07356 54.848528 12.848528
C 55.07356 12.623496 55.2 12.318244 55.2 12
C 55.2 11.681756 55.07356 11.376504 54.848528 11.151472
C 54.623496 10.92644 54.318244 10.8 54 10.8
C 53.681756 10.8 53.376504 10.92644 53.151472 11.151472
C 52.92644 11.376504 52.8 11.681756 52.8 12
C 52.8 12.318244 52.92644 12.623496 53.151472 12.848528
C 53.376504 13.07356 53.681756 13.2 54 13.2
z
M 66 13.2
C 66.318244 13.2 66.623496 13.07356 66.848528 12.848528
C 67.07356 12.623496 67.2 12.318244 67.2 12
C 67.2 11.681756 67.07356 11.376504 66.848528 11.151472
C 66.623496 10.92644 66.318244 10.8 66 10.8
C 65.681756 10.8 65.376504 10.92644 65.151472 11.151472
C 64.92644 11.376504 64.8 11.681756 64.8 12
C 64.8 12.318244 64.92644 12.623496 65.151472 12.848528
C 65.376504 13.07356 65.681756 13.2 66 13.2
z
M 0 1.2
C 0.318244 1.2 0.623496 1.07356 0.848528 0.848528
C 1.07356 0.623496 1.2 0.318244 1.2 0
C 1.2 -0.318244 1.07356 -0.623496 0.848528 -0.848528
C 0.623496 -1.07356 0.318244 -1.2 0 -1.2
C -0.318244 -1.2 -0.623496 -1.07356 -0.848528 -0.848528
C -1.07356 -0.623496 -1.2 -0.318244 -1.2 0
C -1.2 0.318244 -1.07356 0.623496 -0.848528 0.848528
C -0.623496 1.07356 -0.318244 1.2 0 1.2
z
M 12 1.2
C 12.318244 1.2 12.623496 1.07356 12.848528 0.848528
C 13.07356 0.623496 13.2 0.318244 13.2 0
C 13.2 -0.318244 13.07356 -0.623496 12.848528 -0.848528
C 12.623496 -1.07356 12.318244 -1.2 12 -1.2
C 11.681756 -1.2 11.376504 -1.07356 11.151472 -0.848528
C 10.92644 -0.623496 10.8 -0.318244 10.8 0
C 10.8 0.318244 10.92644 0.623496 11.151472 0.848528
C 11.376504 1.07356 11.681756 1.2 12 1.2
z
M 24 1.2
C 24.318244 1.2 24.623496 1.07356 24.848528 0.848528
C 25.07356 0.623496 25.2 0.318244 25.2 0
C 25.2 -0.318244 25.07356 -0.623496 24.848528 -0.848528
C 24.623496 -1.07356 24.318244 -1.2 24 -1.2
C 23.681756 -1.2 23.376504 -1.07356 23.151472 -0.848528
C 22.92644 -0.623496 22.8 -0.318244 22.8 0
C 22.8 0.318244 22.92644 0.623496 23.151472 0.848528
C 23.376504 1.07356 23.681756 1.2 24 1.2
z
M 36 1.2
C 36.318244 1.2 36.623496 1.07356 36.848528 0.848528
C 37.07356 0.623496 37.2 0.318244 37.2 0
C 37.2 -0.318244 37.07356 -0.623496 36.848528 -0.848528
C 36.623496 -1.07356 36.318244 -1.2 36 -1.2
C 35.681756 -1.2 35.376504 -1.07356 35.151472 -0.848528
C 34.92644 -0.623496 34.8 -0.318244 34.8 0
C 34.8 0.318244 34.92644 0.623496 35.151472 0.848528
C 35.376504 1.07356 35.681756 1.2 36 1.2
z
M 48 1.2
C 48.318244 1.2 48.623496 1.07356 48.848528 0.848528
C 49.07356 0.623496 49.2 0.318244 49.2 0
C 49.2 -0.318244 49.07356 -0.623496 48.848528 -0.848528
C 48.623496 -1.07356 48.318244 -1.2 48 -1.2
C 47.681756 -1.2 47.376504 -1.07356 47.151472 -0.848528
C 46.92644 -0.623496 46.8 -0.318244 46.8 0
C 46.8 0.318244 46.92644 0.623496 47.151472 0.848528
C 47.376504 1.07356 47.681756 1.2 48 1.2
z
M 60 1.2
C 60.318244 1.2 60.623496 1.07356 60.848528 0.848528
C 61.07356 0.623496 61.2 0.318244 61.2 0
C 61.2 -0.318244 61.07356 -0.623496 60.848528 -0.848528
C 60.623496 -1.07356 60.318244 -1.2 60 -1.2
C 59.681756 -1.2 59.376504 -1.07356 59.151472 -0.848528
C 58.92644 -0.623496 58.8 -0.318244 58.8 0
C 58.8 0.318244 58.92644 0.623496 59.151472 0.848528
C 59.376504 1.07356 59.681756 1.2 60 1.2
z
M 72 1.2
C 72.318244 1.2 72.623496 1.07356 72.848528 0.848528
C 73.07356 0.623496 73.2 0.318244 73.2 0
C 73.2 -0.318244 73.07356 -0.623496 72.848528 -0.848528
C 72.623496 -1.07356 72.318244 -1.2 72 -1.2
C 71.681756 -1.2 71.376504 -1.07356 71.151472 -0.848528
C 70.92644 -0.623496 70.8 -0.318244 70.8 0
C 70.8 0.318244 70.92644 0.623496 71.151472 0.848528
C 71.376504 1.07356 71.681756 1.2 72 1.2
z
" style="fill: #000000; stroke: #000000; stroke-width: 1.0; stroke-linecap: butt; stroke-linejoin: miter"/>
  </pattern>
  <pattern id="h1846414e8f" patternUnits="userSpaceOnUse" x="0" y="0" width="72" height="72">
   <rect x="0" y="0" width="73" height="73" fill="#fff7ed"/>
   <path d="M -36 36
L 36 -36
M -24 48
L 48 -24
M -12 60
L 60 -12
M 0 72
L 72 0
M 12 84
L 84 12
M 24 96
L 96 24
M 36 108
L 108 36
" style="fill: #000000; stroke: #000000; stroke-width: 1.0; stroke-linecap: butt; stroke-linejoin: miter"/>
  </pattern>
  <pattern id="h052514ad8d" patternUnits="userSpaceOnUse" x="0" y="0" width="72" height="72">
   <rect x="0" y="0" width="73" height="73" fill="#bfdbfe"/>
   <path d="M 0 73.2
C 0.318244 73.2 0.623496 73.07356 0.848528 72.848528
C 1.07356 72.623496 1.2 72.318244 1.2 72
C 1.2 71.681756 1.07356 71.376504 0.848528 71.151472
C 0.623496 70.92644 0.318244 70.8 0 70.8
C -0.318244 70.8 -0.623496 70.92644 -0.848528 71.151472
C -1.07356 71.376504 -1.2 71.681756 -1.2 72
C -1.2 72.318244 -1.07356 72.623496 -0.848528 72.848528
C -0.623496 73.07356 -0.318244 73.2 0 73.2
z
M 12 73.2
C 12.318244 73.2 12.623496 73.07356 12.848528 72.848528
C 13.07356 72.623496 13.2 72.318244 13.2 72
C 13.2 71.681756 13.07356 71.376504 12.848528 71.151472
C 12.623496 70.92644 12.318244 70.8 12 70.8
C 11.681756 70.8 11.376504 70.92644 11.151472 71.151472
C 10.92644 71.376504 10.8 71.681756 10.8 72
C 10.8 72.318244 10.92644 72.623496 11.151472 72.848528
C 11.376504 73.07356 11.681756 73.2 12 73.2
z
M 24 73.2
C 24.318244 73.2 24.623496 73.07356 24.848528 72.848528
C 25.07356 72.623496 25.2 72.318244 25.2 72
C 25.2 71.681756 25.07356 71.376504 24.848528 71.151472
C 24.623496 70.92644 24.318244 70.8 24 70.8
C 23.681756 70.8 23.376504 70.92644 23.151472 71.151472
C 22.92644 71.376504 22.8 71.681756 22.8 72
C 22.8 72.318244 22.92644 72.623496 23.151472 72.848528
C 23.376504 73.07356 23.681756 73.2 24 73.2
z
M 36 73.2
C 36.318244 73.2 36.623496 73.07356 36.848528 72.848528
C 37.07356 72.623496 37.2 72.318244 37.2 72
C 37.2 71.681756 37.07356 71.376504 36.848528 71.151472
C 36.623496 70.92644 36.318244 70.8 36 70.8
C 35.681756 70.8 35.376504 70.92644 35.151472 71.151472
C 34.92644 71.376504 34.8 71.681756 34.8 72
C 34.8 72.318244 34.92644 72.623496 35.151472 72.848528
C 35.376504 73.07356 35.681756 73.2 36 73.2
z
M 48 73.2
C 48.318244 73.2 48.623496 73.07356 48.848528 72.848528
C 49.07356 72.623496 49.2 72.318244 49.2 72
C 49.2 71.681756 49.07356 71.376504 48.848528 71.151472
C 48.623496 70.92644 48.318244 70.8 48 70.8
C 47.681756 70.8 47.376504 70.92644 47.151472 71.151472
C 46.92644 71.376504 46.8 71.681756 46.8 72
C 46.8 72.318244 46.92644 72.623496 47.151472 72.848528
C 47.376504 73.07356 47.681756 73.2 48 73.2
z
M 60 73.2
C 60.318244 73.2 60.623496 73.07356 60.848528 72.848528
C 61.07356 72.623496 61.2 72.318244 61.2 72
C 61.2 71.681756 61.07356 71.376504 60.848528 71.151472
C 60.623496 70.92644 60.318244 70.8 60 70.8
C 59.681756 70.8 59.376504 70.92644 59.151472 71.151472
C 58.92644 71.376504 58.8 71.681756 58.8 72
C 58.8 72.318244 58.92644 72.623496 59.151472 72.848528
C 59.376504 73.07356 59.681756 73.2 60 73.2
z
M 72 73.2
C 72.318244 73.2 72.623496 73.07356 72.848528 72.848528
C 73.07356 72.623496 73.2 72.318244 73.2 72
C 73.2 71.681756 73.07356 71.376504 72.848528 71.151472
C 72.623496 70.92644 72.318244 70.8 72 70.8
C 71.681756 70.8 71.376504 70.92644 71.151472 71.151472
C 70.92644 71.376504 70.8 71.681756 70.8 72
C 70.8 72.318244 70.92644 72.623496 71.151472 72.848528
C 71.376504 73.07356 71.681756 73.2 72 73.2
z
M 6 61.2
C 6.318244 61.2 6.623496 61.07356 6.848528 60.848528
C 7.07356 60.623496 7.2 60.318244 7.2 60
C 7.2 59.681756 7.07356 59.376504 6.848528 59.151472
C 6.623496 58.92644 6.318244 58.8 6 58.8
C 5.681756 58.8 5.376504 58.92644 5.151472 59.151472
C 4.92644 59.376504 4.8 59.681756 4.8 60
C 4.8 60.318244 4.92644 60.623496 5.151472 60.848528
C 5.376504 61.07356 5.681756 61.2 6 61.2
z
M 18 61.2
C 18.318244 61.2 18.623496 61.07356 18.848528 60.848528
C 19.07356 60.623496 19.2 60.318244 19.2 60
C 19.2 59.681756 19.07356 59.376504 18.848528 59.151472
C 18.623496 58.92644 18.318244 58.8 18 58.8
C 17.681756 58.8 17.376504 58.92644 17.151472 59.151472
C 16.92644 59.376504 16.8 59.681756 16.8 60
C 16.8 60.318244 16.92644 60.623496 17.151472 60.848528
C 17.376504 61.07356 17.681756 61.2 18 61.2
z
M 30 61.2
C 30.318244 61.2 30.623496 61.07356 30.848528 60.848528
C 31.07356 60.623496 31.2 60.318244 31.2 60
C 31.2 59.681756 31.07356 59.376504 30.848528 59.151472
C 30.623496 58.92644 30.318244 58.8 30 58.8
C 29.681756 58.8 29.376504 58.92644 29.151472 59.151472
C 28.92644 59.376504 28.8 59.681756 28.8 60
C 28.8 60.318244 28.92644 60.623496 29.151472 60.848528
C 29.376504 61.07356 29.681756 61.2 30 61.2
z
M 42 61.2
C 42.318244 61.2 42.623496 61.07356 42.848528 60.848528
C 43.07356 60.623496 43.2 60.318244 43.2 60
C 43.2 59.681756 43.07356 59.376504 42.848528 59.151472
C 42.623496 58.92644 42.318244 58.8 42 58.8
C 41.681756 58.8 41.376504 58.92644 41.151472 59.151472
C 40.92644 59.376504 40.8 59.681756 40.8 60
C 40.8 60.318244 40.92644 60.623496 41.151472 60.848528
C 41.376504 61.07356 41.681756 61.2 42 61.2
z
M 54 61.2
C 54.318244 61.2 54.623496 61.07356 54.848528 60.848528
C 55.07356 60.623496 55.2 60.318244 55.2 60
C 55.2 59.681756 55.07356 59.376504 54.848528 59.151472
C 54.623496 58.92644 54.318244 58.8 54 58.8
C 53.681756 58.8 53.376504 58.92644 53.151472 59.151472
C 52.92644 59.376504 52.8 59.681756 52.8 60
C 52.8 60.318244 52.92644 60.623496 53.151472 60.848528
C 53.376504 61.07356 53.681756 61.2 54 61.2
z
M 66 61.2
C 66.318244 61.2 66.623496 61.07356 66.848528 60.848528
C 67.07356 60.623496 67.2 60.318244 67.2 60
C 67.2 59.681756 67.07356 59.376504 66.848528 59.151472
C 66.623496 58.92644 66.318244 58.8 66 58.8
C 65.681756 58.8 65.376504 58.92644 65.151472 59.151472
C 64.92644 59.376504 64.8 59.681756 64.8 60
C 64.8 60.318244 64.92644 60.623496 65.151472 60.848528
C 65.376504 61.07356 65.681756 61.2 66 61.2
z
M 0 49.2
C 0.318244 49.2 0.623496 49.07356 0.848528 48.848528
C 1.07356 48.623496 1.2 48.318244 1.2 48
C 1.2 47.681756 1.07356 47.376504 0.848528 47.151472
C 0.623496 46.92644 0.318244 46.8 0 46.8
C -0.318244 46.8 -0.623496 46.92644 -0.848528 47.151472
C -1.07356 47.376504 -1.2 47.681756 -1.2 48
C -1.2 48.318244 -1.07356 48.623496 -0.848528 48.848528
C -0.623496 49.07356 -0.318244 49.2 0 49.2
z
M 12 49.2
C 12.318244 49.2 12.623496 49.07356 12.848528 48.848528
C 13.07356 48.623496 13.2 48.318244 13.2 48
C 13.2 47.681756 13.07356 47.376504 12.848528 47.151472
C 12.623496 46.92644 12.318244 46.8 12 46.8
C 11.681756 46.8 11.376504 46.92644 11.151472 47.151472
C 10.92644 47.376504 10.8 47.681756 10.8 48
C 10.8 48.318244 10.92644 48.623496 11.151472 48.848528
C 11.376504 49.07356 11.681756 49.2 12 49.2
z
M 24 49.2
C 24.318244 49.2 24.623496 49.07356 24.848528 48.848528
C 25.07356 48.623496 25.2 48.318244 25.2 48
C 25.2 47.681756 25.07356 47.376504 24.848528 47.151472
C 24.623496 46.92644 24.318244 46.8 24 46.8
C 23.681756 46.8 23.376504 46.92644 23.151472 47.151472
C 22.92644 47.376504 22.8 47.681756 22.8 48
C 22.8 48.318244 22.92644 48.623496 23.151472 48.848528
C 23.376504 49.07356 23.681756 49.2 24 49.2
z
M 36 49.2
C 36.318244 49.2 36.623496 49.07356 36.848528 48.848528
C 37.07356 48.623496 37.2 48.318244 37.2 48
C 37.2 47.681756 37.07356 47.376504 36.848528 47.151472
C 36.623496 46.92644 36.318244 46.8 36 46.8
C 35.681756 46.8 35.376504 46.92644 35.151472 47.151472
C 34.92644 47.376504 34.8 47.681756 34.8 48
C 34.8 48.318244 34.92644 48.623496 35.151472 48.848528
C 35.376504 49.07356 35.681756 49.2 36 49.2
z
M 48 49.2
C 48.318244 49.2 48.623496 49.07356 48.848528 48.848528
C 49.07356 48.623496 49.2 48.318244 49.2 48
C 49.2 47.681756 49.07356 47.376504 48.848528 47.151472
C 48.623496 46.92644 48.318244 46.8 48 46.8
C 47.681756 46.8 47.376504 46.92644 47.151472 47.151472
C 46.92644 47.376504 46.8 47.681756 46.8 48
C 46.8 48.318244 46.92644 48.623496 47.151472 48.848528
C 47.376504 49.07356 47.681756 49.2 48 49.2
z
M 60 49.2
C 60.318244 49.2 60.623496 49.07356 60.848528 48.848528
C 61.07356 48.623496 61.2 48.318244 61.2 48
C 61.2 47.681756 61.07356 47.376504 60.848528 47.151472
C 60.623496 46.92644 60.318244 46.8 60 46.8
C 59.681756 46.8 59.376504 46.92644 59.151472 47.151472
C 58.92644 47.376504 58.8 47.681756 58.8 48
C 58.8 48.318244 58.92644 48.623496 59.151472 48.848528
C 59.376504 49.07356 59.681756 49.2 60 49.2
z
M 72 49.2
C 72.318244 49.2 72.623496 49.07356 72.848528 48.848528
C 73.07356 48.623496 73.2 48.318244 73.2 48
C 73.2 47.681756 73.07356 47.376504 72.848528 47.151472
C 72.623496 46.92644 72.318244 46.8 72 46.8
C 71.681756 46.8 71.376504 46.92644 71.151472 47.151472
C 70.92644 47.376504 70.8 47.681756 70.8 48
C 70.8 48.318244 70.92644 48.623496 71.151472 48.848528
C 71.376504 49.07356 71.681756 49.2 72 49.2
z
M 6 37.2
C 6.318244 37.2 6.623496 37.07356 6.848528 36.848528
C 7.07356 36.623496 7.2 36.318244 7.2 36
C 7.2 35.681756 7.07356 35.376504 6.848528 35.151472
C 6.623496 34.92644 6.318244 34.8 6 34.8
C 5.681756 34.8 5.376504 34.92644 5.151472 35.151472
C 4.92644 35.376504 4.8 35.681756 4.8 36
C 4.8 36.318244 4.92644 36.623496 5.151472 36.848528
C 5.376504 37.07356 5.681756 37.2 6 37.2
z
M 18 37.2
C 18.318244 37.2 18.623496 37.07356 18.848528 36.848528
C 19.07356 36.623496 19.2 36.318244 19.2 36
C 19.2 35.681756 19.07356 35.376504 18.848528 35.151472
C 18.623496 34.92644 18.318244 34.8 18 34.8
C 17.681756 34.8 17.376504 34.92644 17.151472 35.151472
C 16.92644 35.376504 16.8 35.681756 16.8 36
C 16.8 36.318244 16.92644 36.623496 17.151472 36.848528
C 17.376504 37.07356 17.681756 37.2 18 37.2
z
M 30 37.2
C 30.318244 37.2 30.623496 37.07356 30.848528 36.848528
C 31.07356 36.623496 31.2 36.318244 31.2 36
C 31.2 35.681756 31.07356 35.376504 30.848528 35.151472
C 30.623496 34.92644 30.318244 34.8 30 34.8
C 29.681756 34.8 29.376504 34.92644 29.151472 35.151472
C 28.92644 35.376504 28.8 35.681756 28.8 36
C 28.8 36.318244 28.92644 36.623496 29.151472 36.848528
C 29.376504 37.07356 29.681756 37.2 30 37.2
z
M 42 37.2
C 42.318244 37.2 42.623496 37.07356 42.848528 36.848528
C 43.07356 36.623496 43.2 36.318244 43.2 36
C 43.2 35.681756 43.07356 35.376504 42.848528 35.151472
C 42.623496 34.92644 42.318244 34.8 42 34.8
C 41.681756 34.8 41.376504 34.92644 41.151472 35.151472
C 40.92644 35.376504 40.8 35.681756 40.8 36
C 40.8 36.318244 40.92644 36.623496 41.151472 36.848528
C 41.376504 37.07356 41.681756 37.2 42 37.2
z
M 54 37.2
C 54.318244 37.2 54.623496 37.07356 54.848528 36.848528
C 55.07356 36.623496 55.2 36.318244 55.2 36
C 55.2 35.681756 55.07356 35.376504 54.848528 35.151472
C 54.623496 34.92644 54.318244 34.8 54 34.8
C 53.681756 34.8 53.376504 34.92644 53.151472 35.151472
C 52.92644 35.376504 52.8 35.681756 52.8 36
C 52.8 36.318244 52.92644 36.623496 53.151472 36.848528
C 53.376504 37.07356 53.681756 37.2 54 37.2
z
M 66 37.2
C 66.318244 37.2 66.623496 37.07356 66.848528 36.848528
C 67.07356 36.623496 67.2 36.318244 67.2 36
C 67.2 35.681756 67.07356 35.376504 66.848528 35.151472
C 66.623496 34.92644 66.318244 34.8 66 34.8
C 65.681756 34.8 65.376504 34.92644 65.151472 35.151472
C 64.92644 35.376504 64.8 35.681756 64.8 36
C 64.8 36.318244 64.92644 36.623496 65.151472 36.848528
C 65.376504 37.07356 65.681756 37.2 66 37.2
z
M 0 25.2
C 0.318244 25.2 0.623496 25.07356 0.848528 24.848528
C 1.07356 24.623496 1.2 24.318244 1.2 24
C 1.2 23.681756 1.07356 23.376504 0.848528 23.151472
C 0.623496 22.92644 0.318244 22.8 0 22.8
C -0.318244 22.8 -0.623496 22.92644 -0.848528 23.151472
C -1.07356 23.376504 -1.2 23.681756 -1.2 24
C -1.2 24.318244 -1.07356 24.623496 -0.848528 24.848528
C -0.623496 25.07356 -0.318244 25.2 0 25.2
z
M 12 25.2
C 12.318244 25.2 12.623496 25.07356 12.848528 24.848528
C 13.07356 24.623496 13.2 24.318244 13.2 24
C 13.2 23.681756 13.07356 23.376504 12.848528 23.151472
C 12.623496 22.92644 12.318244 22.8 12 22.8
C 11.681756 22.8 11.376504 22.92644 11.151472 23.151472
C 10.92644 23.376504 10.8 23.681756 10.8 24
C 10.8 24.318244 10.92644 24.623496 11.151472 24.848528
C 11.376504 25.07356 11.681756 25.2 12 25.2
z
M 24 25.2
C 24.318244 25.2 24.623496 25.07356 24.848528 24.848528
C 25.07356 24.623496 25.2 24.318244 25.2 24
C 25.2 23.681756 25.07356 23.376504 24.848528 23.151472
C 24.623496 22.92644 24.318244 22.8 24 22.8
C 23.681756 22.8 23.376504 22.92644 23.151472 23.151472
C 22.92644 23.376504 22.8 23.681756 22.8 24
C 22.8 24.318244 22.92644 24.623496 23.151472 24.848528
C 23.376504 25.07356 23.681756 25.2 24 25.2
z
M 36 25.2
C 36.318244 25.2 36.623496 25.07356 36.848528 24.848528
C 37.07356 24.623496 37.2 24.318244 37.2 24
C 37.2 23.681756 37.07356 23.376504 36.848528 23.151472
C 36.623496 22.92644 36.318244 22.8 36 22.8
C 35.681756 22.8 35.376504 22.92644 35.151472 23.151472
C 34.92644 23.376504 34.8 23.681756 34.8 24
C 34.8 24.318244 34.92644 24.623496 35.151472 24.848528
C 35.376504 25.07356 35.681756 25.2 36 25.2
z
M 48 25.2
C 48.318244 25.2 48.623496 25.07356 48.848528 24.848528
C 49.07356 24.623496 49.2 24.318244 49.2 24
C 49.2 23.681756 49.07356 23.376504 48.848528 23.151472
C 48.623496 22.92644 48.318244 22.8 48 22.8
C 47.681756 22.8 47.376504 22.92644 47.151472 23.151472
C 46.92644 23.376504 46.8 23.681756 46.8 24
C 46.8 24.318244 46.92644 24.623496 47.151472 24.848528
C 47.376504 25.07356 47.681756 25.2 48 25.2
z
M 60 25.2
C 60.318244 25.2 60.623496 25.07356 60.848528 24.848528
C 61.07356 24.623496 61.2 24.318244 61.2 24
C 61.2 23.681756 61.07356 23.376504 60.848528 23.151472
C 60.623496 22.92644 60.318244 22.8 60 22.8
C 59.681756 22.8 59.376504 22.92644 59.151472 23.151472
C 58.92644 23.376504 58.8 23.681756 58.8 24
C 58.8 24.318244 58.92644 24.623496 59.151472 24.848528
C 59.376504 25.07356 59.681756 25.2 60 25.2
z
M 72 25.2
C 72.318244 25.2 72.623496 25.07356 72.848528 24.848528
C 73.07356 24.623496 73.2 24.318244 73.2 24
C 73.2 23.681756 73.07356 23.376504 72.848528 23.151472
C 72.623496 22.92644 72.318244 22.8 72 22.8
C 71.681756 22.8 71.376504 22.92644 71.151472 23.151472
C 70.92644 23.376504 70.8 23.681756 70.8 24
C 70.8 24.318244 70.92644 24.623496 71.151472 24.848528
C 71.376504 25.07356 71.681756 25.2 72 25.2
z
M 6 13.2
C 6.318244 13.2 6.623496 13.07356 6.848528 12.848528
C 7.07356 12.623496 7.2 12.318244 7.2 12
C 7.2 11.681756 7.07356 11.376504 6.848528 11.151472
C 6.623496 10.92644 6.318244 10.8 6 10.8
C 5.681756 10.8 5.376504 10.92644 5.151472 11.151472
C 4.92644 11.376504 4.8 11.681756 4.8 12
C 4.8 12.318244 4.92644 12.623496 5.151472 12.848528
C 5.376504 13.07356 5.681756 13.2 6 13.2
z
M 18 13.2
C 18.318244 13.2 18.623496 13.07356 18.848528 12.848528
C 19.07356 12.623496 19.2 12.318244 19.2 12
C 19.2 11.681756 19.07356 11.376504 18.848528 11.151472
C 18.623496 10.92644 18.318244 10.8 18 10.8
C 17.681756 10.8 17.376504 10.92644 17.151472 11.151472
C 16.92644 11.376504 16.8 11.681756 16.8 12
C 16.8 12.318244 16.92644 12.623496 17.151472 12.848528
C 17.376504 13.07356 17.681756 13.2 18 13.2
z
M 30 13.2
C 30.318244 13.2 30.623496 13.07356 30.848528 12.848528
C 31.07356 12.623496 31.2 12.318244 31.2 12
C 31.2 11.681756 31.07356 11.376504 30.848528 11.151472
C 30.623496 10.92644 30.318244 10.8 30 10.8
C 29.681756 10.8 29.376504 10.92644 29.151472 11.151472
C 28.92644 11.376504 28.8 11.681756 28.8 12
C 28.8 12.318244 28.92644 12.623496 29.151472 12.848528
C 29.376504 13.07356 29.681756 13.2 30 13.2
z
M 42 13.2
C 42.318244 13.2 42.623496 13.07356 42.848528 12.848528
C 43.07356 12.623496 43.2 12.318244 43.2 12
C 43.2 11.681756 43.07356 11.376504 42.848528 11.151472
C 42.623496 10.92644 42.318244 10.8 42 10.8
C 41.681756 10.8 41.376504 10.92644 41.151472 11.151472
C 40.92644 11.376504 40.8 11.681756 40.8 12
C 40.8 12.318244 40.92644 12.623496 41.151472 12.848528
C 41.376504 13.07356 41.681756 13.2 42 13.2
z
M 54 13.2
C 54.318244 13.2 54.623496 13.07356 54.848528 12.848528
C 55.07356 12.623496 55.2 12.318244 55.2 12
C 55.2 11.681756 55.07356 11.376504 54.848528 11.151472
C 54.623496 10.92644 54.318244 10.8 54 10.8
C 53.681756 10.8 53.376504 10.92644 53.151472 11.151472
C 52.92644 11.376504 52.8 11.681756 52.8 12
C 52.8 12.318244 52.92644 12.623496 53.151472 12.848528
C 53.376504 13.07356 53.681756 13.2 54 13.2
z
M 66 13.2
C 66.318244 13.2 66.623496 13.07356 66.848528 12.848528
C 67.07356 12.623496 67.2 12.318244 67.2 12
C 67.2 11.681756 67.07356 11.376504 66.848528 11.151472
C 66.623496 10.92644 66.318244 10.8 66 10.8
C 65.681756 10.8 65.376504 10.92644 65.151472 11.151472
C 64.92644 11.376504 64.8 11.681756 64.8 12
C 64.8 12.318244 64.92644 12.623496 65.151472 12.848528
C 65.376504 13.07356 65.681756 13.2 66 13.2
z
M 0 1.2
C 0.318244 1.2 0.623496 1.07356 0.848528 0.848528
C 1.07356 0.623496 1.2 0.318244 1.2 0
C 1.2 -0.318244 1.07356 -0.623496 0.848528 -0.848528
C 0.623496 -1.07356 0.318244 -1.2 0 -1.2
C -0.318244 -1.2 -0.623496 -1.07356 -0.848528 -0.848528
C -1.07356 -0.623496 -1.2 -0.318244 -1.2 0
C -1.2 0.318244 -1.07356 0.623496 -0.848528 0.848528
C -0.623496 1.07356 -0.318244 1.2 0 1.2
z
M 12 1.2
C 12.318244 1.2 12.623496 1.07356 12.848528 0.848528
C 13.07356 0.623496 13.2 0.318244 13.2 0
C 13.2 -0.318244 13.07356 -0.623496 12.848528 -0.848528
C 12.623496 -1.07356 12.318244 -1.2 12 -1.2
C 11.681756 -1.2 11.376504 -1.07356 11.151472 -0.848528
C 10.92644 -0.623496 10.8 -0.318244 10.8 0
C 10.8 0.318244 10.92644 0.623496 11.151472 0.848528
C 11.376504 1.07356 11.681756 1.2 12 1.2
z
M 24 1.2
C 24.318244 1.2 24.623496 1.07356 24.848528 0.848528
C 25.07356 0.623496 25.2 0.318244 25.2 0
C 25.2 -0.318244 25.07356 -0.623496 24.848528 -0.848528
C 24.623496 -1.07356 24.318244 -1.2 24 -1.2
C 23.681756 -1.2 23.376504 -1.07356 23.151472 -0.848528
C 22.92644 -0.623496 22.8 -0.318244 22.8 0
C 22.8 0.318244 22.92644 0.623496 23.151472 0.848528
C 23.376504 1.07356 23.681756 1.2 24 1.2
z
M 36 1.2
C 36.318244 1.2 36.623496 1.07356 36.848528 0.848528
C 37.07356 0.623496 37.2 0.318244 37.2 0
C 37.2 -0.318244 37.07356 -0.623496 36.848528 -0.848528
C 36.623496 -1.07356 36.318244 -1.2 36 -1.2
C 35.681756 -1.2 35.376504 -1.07356 35.151472 -0.848528
C 34.92644 -0.623496 34.8 -0.318244 34.8 0
C 34.8 0.318244 34.92644 0.623496 35.151472 0.848528
C 35.376504 1.07356 35.681756 1.2 36 1.2
z
M 48 1.2
C 48.318244 1.2 48.623496 1.07356 48.848528 0.848528
C 49.07356 0.623496 49.2 0.318244 49.2 0
C 49.2 -0.318244 49.07356 -0.623496 48.848528 -0.848528
C 48.623496 -1.07356 48.318244 -1.2 48 -1.2
C 47.681756 -1.2 47.376504 -1.07356 47.151472 -0.848528
C 46.92644 -0.623496 46.8 -0.318244 46.8 0
C 46.8 0.318244 46.92644 0.623496 47.151472 0.848528
C 47.376504 1.07356 47.681756 1.2 48 1.2
z
M 60 1.2
C 60.318244 1.2 60.623496 1.07356 60.848528 0.848528
C 61.07356 0.623496 61.2 0.318244 61.2 0
C 61.2 -0.318244 61.07356 -0.623496 60.848528 -0.848528
C 60.623496 -1.07356 60.318244 -1.2 60 -1.2
C 59.681756 -1.2 59.376504 -1.07356 59.151472 -0.848528
C 58.92644 -0.623496 58.8 -0.318244 58.8 0
C 58.8 0.318244 58.92644 0.623496 59.151472 0.848528
C 59.376504 1.07356 59.681756 1.2 60 1.2
z
M 72 1.2
C 72.318244 1.2 72.623496 1.07356 72.848528 0.848528
C 73.07356 0.623496 73.2 0.318244 73.2 0
C 73.2 -0.318244 73.07356 -0.623496 72.848528 -0.848528
C 72.623496 -1.07356 72.318244 -1.2 72 -1.2
C 71.681756 -1.2 71.376504 -1.07356 71.151472 -0.848528
C 70.92644 -0.623496 70.8 -0.318244 70.8 0
C 70.8 0.318244 70.92644 0.623496 71.151472 0.848528
C 71.376504 1.07356 71.681756 1.2 72 1.2
z
" style="fill: #000000; stroke: #000000; stroke-width: 1.0; stroke-linecap: butt; stroke-linejoin: miter"/>
  </pattern>
  <pattern id="he9b7174c5b" patternUnits="userSpaceOnUse" x="0" y="0" width="72" height="72">
   <rect x="0" y="0" width="73" height="73" fill="#ef4444"/>
   <path d="M 0 68
L -1.175571 70.381966
L -3.804226 70.763932
L -1.902113 72.618034
L -2.351141 75.236068
L -0 74
L 2.351141 75.236068
L 1.902113 72.618034
L 3.804226 70.763932
L 1.175571 70.381966
L 0 68
M 12 68
L 10.824429 70.381966
L 8.195774 70.763932
L 10.097887 72.618034
L 9.648859 75.236068
L 12 74
L 14.351141 75.236068
L 13.902113 72.618034
L 15.804226 70.763932
L 13.175571 70.381966
L 12 68
M 24 68
L 22.824429 70.381966
L 20.195774 70.763932
L 22.097887 72.618034
L 21.648859 75.236068
L 24 74
L 26.351141 75.236068
L 25.902113 72.618034
L 27.804226 70.763932
L 25.175571 70.381966
L 24 68
M 36 68
L 34.824429 70.381966
L 32.195774 70.763932
L 34.097887 72.618034
L 33.648859 75.236068
L 36 74
L 38.351141 75.236068
L 37.902113 72.618034
L 39.804226 70.763932
L 37.175571 70.381966
L 36 68
M 48 68
L 46.824429 70.381966
L 44.195774 70.763932
L 46.097887 72.618034
L 45.648859 75.236068
L 48 74
L 50.351141 75.236068
L 49.902113 72.618034
L 51.804226 70.763932
L 49.175571 70.381966
L 48 68
M 60 68
L 58.824429 70.381966
L 56.195774 70.763932
L 58.097887 72.618034
L 57.648859 75.236068
L 60 74
L 62.351141 75.236068
L 61.902113 72.618034
L 63.804226 70.763932
L 61.175571 70.381966
L 60 68
M 72 68
L 70.824429 70.381966
L 68.195774 70.763932
L 70.097887 72.618034
L 69.648859 75.236068
L 72 74
L 74.351141 75.236068
L 73.902113 72.618034
L 75.804226 70.763932
L 73.175571 70.381966
L 72 68
M 6 56
L 4.824429 58.381966
L 2.195774 58.763932
L 4.097887 60.618034
L 3.648859 63.236068
L 6 62
L 8.351141 63.236068
L 7.902113 60.618034
L 9.804226 58.763932
L 7.175571 58.381966
L 6 56
M 18 56
L 16.824429 58.381966
L 14.195774 58.763932
L 16.097887 60.618034
L 15.648859 63.236068
L 18 62
L 20.351141 63.236068
L 19.902113 60.618034
L 21.804226 58.763932
L 19.175571 58.381966
L 18 56
M 30 56
L 28.824429 58.381966
L 26.195774 58.763932
L 28.097887 60.618034
L 27.648859 63.236068
L 30 62
L 32.351141 63.236068
L 31.902113 60.618034
L 33.804226 58.763932
L 31.175571 58.381966
L 30 56
M 42 56
L 40.824429 58.381966
L 38.195774 58.763932
L 40.097887 60.618034
L 39.648859 63.236068
L 42 62
L 44.351141 63.236068
L 43.902113 60.618034
L 45.804226 58.763932
L 43.175571 58.381966
L 42 56
M 54 56
L 52.824429 58.381966
L 50.195774 58.763932
L 52.097887 60.618034
L 51.648859 63.236068
L 54 62
L 56.351141 63.236068
L 55.902113 60.618034
L 57.804226 58.763932
L 55.175571 58.381966
L 54 56
M 66 56
L 64.824429 58.381966
L 62.195774 58.763932
L 64.097887 60.618034
L 63.648859 63.236068
L 66 62
L 68.351141 63.236068
L 67.902113 60.618034
L 69.804226 58.763932
L 67.175571 58.381966
L 66 56
M 0 44
L -1.175571 46.381966
L -3.804226 46.763932
L -1.902113 48.618034
L -2.351141 51.236068
L -0 50
L 2.351141 51.236068
L 1.902113 48.618034
L 3.804226 46.763932
L 1.175571 46.381966
L 0 44
M 12 44
L 10.824429 46.381966
L 8.195774 46.763932
L 10.097887 48.618034
L 9.648859 51.236068
L 12 50
L 14.351141 51.236068
L 13.902113 48.618034
L 15.804226 46.763932
L 13.175571 46.381966
L 12 44
M 24 44
L 22.824429 46.381966
L 20.195774 46.763932
L 22.097887 48.618034
L 21.648859 51.236068
L 24 50
L 26.351141 51.236068
L 25.902113 48.618034
L 27.804226 46.763932
L 25.175571 46.381966
L 24 44
M 36 44
L 34.824429 46.381966
L 32.195774 46.763932
L 34.097887 48.618034
L 33.648859 51.236068
L 36 50
L 38.351141 51.236068
L 37.902113 48.618034
L 39.804226 46.763932
L 37.175571 46.381966
L 36 44
M 48 44
L 46.824429 46.381966
L 44.195774 46.763932
L 46.097887 48.618034
L 45.648859 51.236068
L 48 50
L 50.351141 51.236068
L 49.902113 48.618034
L 51.804226 46.763932
L 49.175571 46.381966
L 48 44
M 60 44
L 58.824429 46.381966
L 56.195774 46.763932
L 58.097887 48.618034
L 57.648859 51.236068
L 60 50
L 62.351141 51.236068
L 61.902113 48.618034
L 63.804226 46.763932
L 61.175571 46.381966
L 60 44
M 72 44
L 70.824429 46.381966
L 68.195774 46.763932
L 70.097887 48.618034
L 69.648859 51.236068
L 72 50
L 74.351141 51.236068
L 73.902113 48.618034
L 75.804226 46.763932
L 73.175571 46.381966
L 72 44
M 6 32
L 4.824429 34.381966
L 2.195774 34.763932
L 4.097887 36.618034
L 3.648859 39.236068
L 6 38
L 8.351141 39.236068
L 7.902113 36.618034
L 9.804226 34.763932
L 7.175571 34.381966
L 6 32
M 18 32
L 16.824429 34.381966
L 14.195774 34.763932
L 16.097887 36.618034
L 15.648859 39.236068
L 18 38
L 20.351141 39.236068
L 19.902113 36.618034
L 21.804226 34.763932
L 19.175571 34.381966
L 18 32
M 30 32
L 28.824429 34.381966
L 26.195774 34.763932
L 28.097887 36.618034
L 27.648859 39.236068
L 30 38
L 32.351141 39.236068
L 31.902113 36.618034
L 33.804226 34.763932
L 31.175571 34.381966
L 30 32
M 42 32
L 40.824429 34.381966
L 38.195774 34.763932
L 40.097887 36.618034
L 39.648859 39.236068
L 42 38
L 44.351141 39.236068
L 43.902113 36.618034
L 45.804226 34.763932
L 43.175571 34.381966
L 42 32
M 54 32
L 52.824429 34.381966
L 50.195774 34.763932
L 52.097887 36.618034
L 51.648859 39.236068
L 54 38
L 56.351141 39.236068
L 55.902113 36.618034
L 57.804226 34.763932
L 55.175571 34.381966
L 54 32
M 66 32
L 64.824429 34.381966
L 62.195774 34.763932
L 64.097887 36.618034
L 63.648859 39.236068
L 66 38
L 68.351141 39.236068
L 67.902113 36.618034
L 69.804226 34.763932
L 67.175571 34.381966
L 66 32
M 0 20
L -1.175571 22.381966
L -3.804226 22.763932
L -1.902113 24.618034
L -2.351141 27.236068
L -0 26
L 2.351141 27.236068
L 1.902113 24.618034
L 3.804226 22.763932
L 1.175571 22.381966
L 0 20
M 12 20
L 10.824429 22.381966
L 8.195774 22.763932
L 10.097887 24.618034
L 9.648859 27.236068
L 12 26
L 14.351141 27.236068
L 13.902113 24.618034
L 15.804226 22.763932
L 13.175571 22.381966
L 12 20
M 24 20
L 22.824429 22.381966
L 20.195774 22.763932
L 22.097887 24.618034
L 21.648859 27.236068
L 24 26
L 26.351141 27.236068
L 25.902113 24.618034
L 27.804226 22.763932
L 25.175571 22.381966
L 24 20
M 36 20
L 34.824429 22.381966
L 32.195774 22.763932
L 34.097887 24.618034
L 33.648859 27.236068
L 36 26
L 38.351141 27.236068
L 37.902113 24.618034
L 39.804226 22.763932
L 37.175571 22.381966
L 36 20
M 48 20
L 46.824429 22.381966
L 44.195774 22.763932
L 46.097887 24.618034
L 45.648859 27.236068
L 48 26
L 50.351141 27.236068
L 49.902113 24.618034
L 51.804226 22.763932
L 49.175571 22.381966
L 48 20
M 60 20
L 58.824429 22.381966
L 56.195774 22.763932
L 58.097887 24.618034
L 57.648859 27.236068
L 60 26
L 62.351141 27.236068
L 61.902113 24.618034
L 63.804226 22.763932
L 61.175571 22.381966
L 60 20
M 72 20
L 70.824429 22.381966
L 68.195774 22.763932
L 70.097887 24.618034
L 69.648859 27.236068
L 72 26
L 74.351141 27.236068
L 73.902113 24.618034
L 75.804226 22.763932
L 73.175571 22.381966
L 72 20
M 6 8
L 4.824429 10.381966
L 2.195774 10.763932
L 4.097887 12.618034
L 3.648859 15.236068
L 6 14
L 8.351141 15.236068
L 7.902113 12.618034
L 9.804226 10.763932
L 7.175571 10.381966
L 6 8
M 18 8
L 16.824429 10.381966
L 14.195774 10.763932
L 16.097887 12.618034
L 15.648859 15.236068
L 18 14
L 20.351141 15.236068
L 19.902113 12.618034
L 21.804226 10.763932
L 19.175571 10.381966
L 18 8
M 30 8
L 28.824429 10.381966
L 26.195774 10.763932
L 28.097887 12.618034
L 27.648859 15.236068
L 30 14
L 32.351141 15.236068
L 31.902113 12.618034
L 33.804226 10.763932
L 31.175571 10.381966
L 30 8
M 42 8
L 40.824429 10.381966
L 38.195774 10.763932
L 40.097887 12.618034
L 39.648859 15.236068
L 42 14
L 44.351141 15.236068
L 43.902113 12.618034
L 45.804226 10.763932
L 43.175571 10.381966
L 42 8
M 54 8
L 52.824429 10.381966
L 50.195774 10.763932
L 52.097887 12.618034
L 51.648859 15.236068
L 54 14
L 56.351141 15.236068
L 55.902113 12.618034
L 57.804226 10.763932
L 55.175571 10.381966
L 54 8
M 66 8
L 64.824429 10.381966
L 62.195774 10.763932
L 64.097887 12.618034
L 63.648859 15.236068
L 66 14
L 68.351141 15.236068
L 67.902113 12.618034
L 69.804226 10.763932
L 67.175571 10.381966
L 66 8
M 0 -4
L -1.175571 -1.618034
L -3.804226 -1.236068
L -1.902113 0.618034
L -2.351141 3.236068
L -0 2
L 2.351141 3.236068
L 1.902113 0.618034
L 3.804226 -1.236068
L 1.175571 -1.618034
L 0 -4
M 12 -4
L 10.824429 -1.618034
L 8.195774 -1.236068
L 10.097887 0.618034
L 9.648859 3.236068
L 12 2
L 14.351141 3.236068
L 13.902113 0.618034
L 15.804226 -1.236068
L 13.175571 -1.618034
L 12 -4
M 24 -4
L 22.824429 -1.618034
L 20.195774 -1.236068
L 22.097887 0.618034
L 21.648859 3.236068
L 24 2
L 26.351141 3.236068
L 25.902113 0.618034
L 27.804226 -1.236068
L 25.175571 -1.618034
L 24 -4
M 36 -4
L 34.824429 -1.618034
L 32.195774 -1.236068
L 34.097887 0.618034
L 33.648859 3.236068
L 36 2
L 38.351141 3.236068
L 37.902113 0.618034
L 39.804226 -1.236068
L 37.175571 -1.618034
L 36 -4
M 48 -4
L 46.824429 -1.618034
L 44.195774 -1.236068
L 46.097887 0.618034
L 45.648859 3.236068
L 48 2
L 50.351141 3.236068
L 49.902113 0.618034
L 51.804226 -1.236068
L 49.175571 -1.618034
L 48 -4
M 60 -4
L 58.824429 -1.618034
L 56.195774 -1.236068
L 58.097887 0.618034
L 57.648859 3.236068
L 60 2
L 62.351141 3.236068
L 61.902113 0.618034
L 63.804226 -1.236068
L 61.175571 -1.618034
L 60 -4
M 72 -4
L 70.824429 -1.618034
L 68.195774 -1.236068
L 70.097887 0.618034
L 69.648859 3.236068
L 72 2
L 74.351141 3.236068
L 73.902113 0.618034
L 75.804226 -1.236068
L 73.175571 -1.618034
L 72 -4
" style="fill: #ef4444; stroke: #ef4444; stroke-width: 1.0; stroke-linecap: butt; stroke-linejoin: miter"/>
  </pattern>
 </defs>
</svg>
