<svg xmlns="http://www.w3.org/2000/svg" width="1200" height="820" viewBox="0 0 1200 820" fill="none">
  <defs>
    <linearGradient id="soilA" x1="0" y1="0" x2="1" y2="1">
      <stop offset="0%" stop-color="#F5E9D7"/>
      <stop offset="100%" stop-color="#E2CFB0"/>
    </linearGradient>
    <linearGradient id="soilB" x1="0" y1="0" x2="1" y2="1">
      <stop offset="0%" stop-color="#ECD7B7"/>
      <stop offset="100%" stop-color="#D8B88F"/>
    </linearGradient>
    <linearGradient id="soilC" x1="0" y1="0" x2="1" y2="1">
      <stop offset="0%" stop-color="#D9AF80"/>
      <stop offset="100%" stop-color="#BE8A60"/>
    </linearGradient>
    <linearGradient id="soilD" x1="0" y1="0" x2="1" y2="1">
      <stop offset="0%" stop-color="#BE8C63"/>
      <stop offset="100%" stop-color="#996A48"/>
    </linearGradient>
    <linearGradient id="casingSteel" x1="0" y1="0" x2="1" y2="1">
      <stop offset="0%" stop-color="#EDF3F8"/>
      <stop offset="48%" stop-color="#A6B8C6"/>
      <stop offset="100%" stop-color="#6F8294"/>
    </linearGradient>
    <linearGradient id="stringSteel" x1="0" y1="0" x2="1" y2="1">
      <stop offset="0%" stop-color="#DCE9F4"/>
      <stop offset="100%" stop-color="#68839D"/>
    </linearGradient>
    <pattern id="diag" width="16" height="16" patternUnits="userSpaceOnUse">
      <path d="M0 16L16 0" stroke="#7F6752" stroke-opacity="0.12"/>
      <path d="M-8 8L8 -8" stroke="#7F6752" stroke-opacity="0.06"/>
      <path d="M8 24L24 8" stroke="#7F6752" stroke-opacity="0.06"/>
    </pattern>
    <pattern id="dots" width="18" height="18" patternUnits="userSpaceOnUse">
      <circle cx="4" cy="4" r="1" fill="#7B6249" fill-opacity="0.16"/>
      <circle cx="13" cy="8" r="0.95" fill="#7B6249" fill-opacity="0.12"/>
      <circle cx="8" cy="14" r="0.8" fill="#7B6249" fill-opacity="0.1"/>
    </pattern>
    <pattern id="cement" width="8" height="8" patternUnits="userSpaceOnUse" patternTransform="rotate(45)">
      <rect width="8" height="8" fill="#E7EDF2"/>
      <line x1="0" y1="0" x2="0" y2="8" stroke="#A3B3C1" stroke-width="1" opacity="0.42"/>
    </pattern>
    <style>
      .title{font:700 13px 'Microsoft YaHei','PingFang SC',Arial,sans-serif;fill:#173145}
      .label{font:700 11.5px 'Microsoft YaHei','PingFang SC',Arial,sans-serif;fill:#173145}
      .note{font:500 10px 'Microsoft YaHei','PingFang SC',Arial,sans-serif;fill:#647487}
      .mono{font:700 10.5px 'IBM Plex Mono','Consolas',monospace;fill:#496171}
      .layer{font:700 9px 'Microsoft YaHei','PingFang SC',Arial,sans-serif;fill:#76593F;opacity:.78}
      .leader{stroke:#788C9D;stroke-width:1.06;fill:none;stroke-linecap:round;stroke-linejoin:round}
      .axis{stroke:#9DAEBC;stroke-width:1.05}
      .major{stroke:#5E7689;stroke-width:1.35}
      .minor{stroke:#AFBFCA;stroke-width:0.9}
      .grid{stroke:#DCE5EC;stroke-width:0.9;stroke-dasharray:4 7}
      .well-outline{stroke:#4D6579;stroke-width:1.8;stroke-linecap:round;stroke-linejoin:round;fill:none}
      .callout-dot{fill:#6D8192}
    </style>
  </defs>

  <rect x="0" y="0" width="1200" height="820" fill="#FFFFFF"/>

  <g>
    <text x="90" y="110" class="title">&#28145;&#24230;</text>
    <text x="90" y="126" class="note">Depth / m</text>
    <line x1="116" y1="150" x2="116" y2="720" class="axis"/>
    <line x1="98" y1="150" x2="116" y2="150" class="major"/>
    <text x="74" y="154" class="mono">0 m</text>
    <line x1="104" y1="221" x2="116" y2="221" class="minor"/>
    <line x1="98" y1="292" x2="116" y2="292" class="major"/>
    <text x="54" y="296" class="mono">1500 m</text>
    <line x1="104" y1="363" x2="116" y2="363" class="minor"/>
    <line x1="98" y1="434" x2="116" y2="434" class="major"/>
    <text x="54" y="438" class="mono">3000 m</text>
    <line x1="104" y1="505" x2="116" y2="505" class="minor"/>
    <line x1="98" y1="576" x2="116" y2="576" class="major"/>
    <text x="54" y="580" class="mono">4500 m</text>
    <line x1="104" y1="647" x2="116" y2="647" class="minor"/>
    <line x1="98" y1="718" x2="116" y2="718" class="major"/>
    <text x="54" y="722" class="mono">6000 m</text>
  </g>

  <g>
    <line x1="172" y1="150" x2="1014" y2="150" stroke="#8DA4B5" stroke-width="1.8"/>
    <text x="184" y="136" class="note">&#22320;&#34920; / Surface</text>
    <line x1="172" y1="292" x2="1014" y2="292" class="grid"/>
    <line x1="172" y1="434" x2="1014" y2="434" class="grid"/>
    <line x1="172" y1="576" x2="1014" y2="576" class="grid"/>
    <line x1="592" y1="72" x2="592" y2="722" stroke="#A1B1BF" stroke-width="0.9" stroke-dasharray="5 6" opacity="0.58"/>
  </g>

  <g>
    <text x="852" y="132" class="note">&#22320;&#23618;</text>
    <rect x="854" y="150" width="28" height="568" fill="#FFFFFF" stroke="#D5E0E8" stroke-width="1"/>
    <rect x="854" y="150" width="28" height="118" fill="url(#soilA)"/>
    <rect x="854" y="268" width="28" height="180" fill="url(#soilB)"/>
    <rect x="854" y="448" width="28" height="128" fill="url(#soilC)"/>
    <rect x="854" y="576" width="28" height="142" fill="url(#soilD)"/>
    <rect x="854" y="150" width="28" height="118" fill="url(#diag)" opacity="0.64"/>
    <rect x="854" y="268" width="28" height="180" fill="url(#dots)" opacity="0.72"/>
    <rect x="854" y="448" width="28" height="128" fill="url(#diag)" opacity="0.56"/>
    <rect x="854" y="576" width="28" height="142" fill="url(#dots)" opacity="0.56"/>
  </g>

  <g aria-label="BOP">
    <line x1="492" y1="150" x2="692" y2="150" stroke="#94A3B8" stroke-width="1"/>
    <line x1="592" y1="80" x2="592" y2="86" stroke="#64748B" stroke-width="1.5"/>
    <rect x="580" y="86" width="24" height="6" rx="1.4" fill="#DDE6ED" stroke="#64748B" stroke-width="0.9"/>
    <rect x="574" y="94" width="36" height="7" rx="1.5" fill="#CBD5E1" stroke="#475569" stroke-width="0.9"/>
    <rect x="566" y="102" width="52" height="10" rx="1.8" fill="#2563EB" stroke="#1E40AF" stroke-width="1.05"/>
    <rect x="554" y="105" width="8" height="5" rx="1" fill="#B91C1C" stroke="#7F1D1D" stroke-width="0.8"/>
    <rect x="622" y="105" width="8" height="5" rx="1" fill="#B91C1C" stroke="#7F1D1D" stroke-width="0.8"/>
    <rect x="576" y="112" width="32" height="7" rx="1.5" fill="#94A3B8" stroke="#475569" stroke-width="0.9"/>
    <rect x="580" y="119" width="24" height="11" rx="1.5" fill="#E2E8F0" stroke="#64748B" stroke-width="0.9"/>
    <line x1="542" y1="108" x2="554" y2="108" stroke="#64748B" stroke-width="1.35"/>
    <line x1="630" y1="108" x2="642" y2="108" stroke="#64748B" stroke-width="1.35"/>
  </g>

  <g>
    <path d="M528 150 H550 V422 H528 Z M634 150 H656 V422 H634 Z" fill="url(#cement)" opacity="0.82"/>
    <rect x="550" y="150" width="84" height="272" rx="10" fill="url(#casingSteel)" stroke="#74899B" stroke-width="1.8"/>
    <rect x="566" y="164" width="52" height="244" rx="8" fill="#F7FBFE" fill-opacity="0.78"/>
    <path d="M536 422 H648 L632 444 H552 Z" fill="#607688" stroke="#516879" stroke-width="1.4"/>

    <path d="M538 444 C530 476 528 536 532 606 C535 662 534 700 538 722" class="well-outline"/>
    <path d="M646 444 C654 476 656 536 652 606 C649 662 650 700 646 722" class="well-outline"/>
    <path d="M538 444 C554 474 560 536 558 606 C556 662 558 698 568 712 L616 712 C626 698 628 662 626 606 C624 536 630 474 646 444" fill="#FFF9EF"/>
    <path d="M538 444 C554 474 560 536 558 606 C556 662 558 698 568 712 L616 712 C626 698 628 662 626 606 C624 536 630 474 646 444" fill="url(#dots)" opacity="0.3"/>

    <rect x="584" y="150" width="16" height="470" rx="8" fill="#607688"/>
    <rect x="572" y="166" width="40" height="436" rx="14" fill="url(#stringSteel)" stroke="#607487" stroke-width="1.2"/>
    <rect x="581" y="184" width="22" height="398" rx="8" fill="#F3F8FB" fill-opacity="0.48"/>
    <rect x="570" y="598" width="44" height="58" rx="8" fill="#64839D" stroke="#4B657B"/>
    <path d="M568 656 L616 656 L624 686 L560 686 Z" fill="#55738D" stroke="#476278"/>
    <path d="M560 686 L624 686 L592 720 Z" fill="#45627A" stroke="#38536A"/>
  </g>

  <g>
    <path d="M610 108 H700 V134 H916" class="leader"/>
    <circle cx="916" cy="134" r="3" class="callout-dot"/>
    <text x="928" y="138" class="label">&#20117;&#21475; / BOP</text>

    <path d="M634 222 H726 V238 H916" class="leader"/>
    <circle cx="916" cy="238" r="3" class="callout-dot"/>
    <text x="928" y="242" class="label">&#34920;&#23618;&#22871;&#31649;</text>

    <path d="M634 422 H726 V334 H916" class="leader"/>
    <circle cx="916" cy="334" r="3" class="callout-dot"/>
    <text x="928" y="338" class="label">&#22871;&#31649;&#38795;</text>

    <path d="M614 486 H736 V456 H916" class="leader"/>
    <circle cx="916" cy="456" r="3" class="callout-dot"/>
    <text x="928" y="460" class="label">&#35064;&#30524;&#27573;</text>

    <path d="M592 704 H718 V682 H916" class="leader"/>
    <circle cx="916" cy="682" r="3" class="callout-dot"/>
    <text x="928" y="686" class="label">&#38075;&#22836;</text>
  </g>
</svg>
